<svg width="1140" height="439" viewBox="0 0 935 249" fill="none" xmlns="http://www.w3.org/2000/svg" class="mx-auto -translate-x-[calc((1140px-100vw)/2)] minlg:translate-x-0"><path id="path1" d="M935 467.5C935 343.511 885.746 224.601 798.072 136.928C710.399 49.2545 591.489 0.000131431 467.5 0.00012207C343.511 0.000112709 224.601 49.2544 136.928 136.928C49.2544 224.601 1.87218e-05 343.511 0 467.5" stroke="url(#paint0_linear)" stroke-width="2" fill="none"></path><path id="path2" d="M852 467.5C852 365.524 811.49 267.725 739.383 195.618C667.275 123.51 569.476 83.0001 467.5 83.0001C365.524 83.0001 267.725 123.51 195.617 195.618C123.51 267.725 83 365.524 83 467.5" stroke="url(#paint1_linear)" stroke-width="2" fill="none"></path><path id="path3" d="M770 467.5C770 387.272 738.13 310.33 681.4 253.6C624.67 196.871 547.728 165 467.5 165C387.272 165 310.33 196.871 253.6 253.6C196.87 310.33 165 387.272 165 467.5" stroke="url(#paint2_linear)" stroke-width="2" fill="none"></path><g id="icons-path1"><g opacity="0"><g><circle r="35" fill="white" stroke="#62626314" stroke-width="1"></circle><g transform="translate(-20, -20)"><svg xmlns="http://www.w3.org/2000/svg" width="40" height="40" viewBox="0 0 55 40" fill="none"><g clip-path="url(#clip0_2999_391)"><path d="M26.8681 14.9868C20.1367 14.9868 14.0208 15.7961 9.49292 17.115V28.3812C14.0208 29.7001 20.1367 30.5093 26.8681 30.5093C34.5725 30.5093 41.4699 29.4492 46.103 27.7783V17.7181C41.4699 16.047 34.5725 14.9868 26.8681 14.9868Z" fill="#8F1E1C"></path><path d="M46.404 25.1835C46.2067 24.6382 46.1673 23.9483 46.3344 23.283C46.6335 22.092 47.481 21.4319 48.2272 21.8085C48.4122 21.9019 48.5736 22.0505 48.7072 22.239C48.7194 22.239 48.7316 22.239 48.7438 22.2398C48.7438 22.2398 51.0221 24.9557 48.9132 28.1723C48.8674 28.3548 44.9994 32.8628 44.104 33.0063C43.5179 33.1002 44.8655 28.4037 46.404 25.1835Z" fill="#8F1E1C"></path><path d="M9.02483 24.651C9.29586 24.1585 9.39088 23.4856 9.24048 22.7882C8.97119 21.5395 8.01777 20.6858 7.11098 20.8814C6.88608 20.9299 6.68526 21.0385 6.51441 21.1933C6.49999 21.1903 6.48556 21.1875 6.47119 21.1854C6.47119 21.1854 3.59252 23.3309 5.85462 27.0116C5.89579 27.2029 10.1426 32.5776 11.1889 32.9318C11.8737 33.1635 10.6137 28.2 9.02483 24.651Z" fill="#8F1E1C"></path><path d="M4.98431 24.96L4.98467 24.9607C4.99413 24.9681 5.00293 24.9748 4.98431 24.96Z" fill="#E33A25"></path><path d="M50.7864 21.1161C50.7413 20.9594 50.6965 20.8028 50.6502 20.6476L52.2193 18.3743C52.3794 18.1431 52.4121 17.8426 52.3078 17.5788C52.2034 17.3165 51.9759 17.1283 51.7064 17.0823L49.053 16.632C48.9503 16.4222 48.8425 16.2156 48.7344 16.0106L49.8491 13.4585C49.9638 13.1984 49.9396 12.8962 49.7876 12.6603C49.6362 12.4233 49.379 12.2848 49.1049 12.2956L46.4122 12.3934C46.2727 12.2118 46.1311 12.0319 45.9866 11.8553L46.6054 9.11983C46.6681 8.84199 46.589 8.55125 46.3956 8.34945C46.2032 8.14837 45.9237 8.06516 45.6579 8.13042L43.0351 8.7752C42.8652 8.6251 42.6925 8.4769 42.5179 8.33166L42.6124 5.52333C42.6225 5.23904 42.49 4.96891 42.2624 4.8112C42.035 4.65246 41.7462 4.62847 41.4976 4.74645L39.0507 5.90975C38.8537 5.79672 38.6556 5.68473 38.4553 5.57646L38.0229 2.809C37.9791 2.52864 37.7987 2.29053 37.546 2.18176C37.2943 2.07242 37.0056 2.10771 36.7845 2.27422L34.603 3.91107C34.3882 3.83968 34.1725 3.77131 33.954 3.70595L33.0137 1.08157C32.9181 0.81416 32.6976 0.617679 32.4288 0.562447C32.1609 0.507675 31.8852 0.600444 31.6994 0.808023L29.8632 2.86244C29.6412 2.83687 29.4191 2.81355 29.1962 2.79432L27.7785 0.405395C27.6348 0.163398 27.3812 0.0161133 27.1078 0.0161133C26.835 0.0161133 26.5809 0.163398 26.4384 0.405395L25.0202 2.79432C24.7973 2.81355 24.5741 2.83687 24.3525 2.86244L22.5161 0.808023C22.3302 0.600444 22.0535 0.507675 21.7865 0.562447C21.5178 0.618292 21.2969 0.81416 21.2018 1.08157L20.2608 3.70595C20.0429 3.77131 19.8271 3.8403 19.6118 3.91107L17.4311 2.27422C17.2093 2.1072 16.9207 2.07196 16.6683 2.18176C16.4167 2.29053 16.2356 2.52864 16.192 2.809L15.7593 5.57646C15.5592 5.68473 15.361 5.79606 15.1634 5.90975L12.7169 4.74645C12.4685 4.62806 12.1784 4.65246 11.9522 4.8112C11.7249 4.96891 11.592 5.23904 11.6024 5.52333L11.6962 8.33166C11.5221 8.4769 11.3498 8.6251 11.1791 8.7752L8.55679 8.13042C8.29031 8.06573 8.01115 8.14837 7.8183 8.34945C7.62424 8.55125 7.54564 8.84199 7.60797 9.11983L8.22567 11.8553C8.08238 12.0326 7.94058 12.2118 7.80158 12.3934L5.1089 12.2956C4.8371 12.2875 4.57773 12.4233 4.4259 12.6603C4.27376 12.8962 4.25075 13.1984 4.36397 13.4585L5.4795 16.0106C5.37114 16.2156 5.26349 16.4222 5.15994 16.632L2.50674 17.0823C2.23719 17.1277 2.00998 17.3158 1.90515 17.5788C1.80098 17.8426 1.83478 18.1431 1.99387 18.3743L3.5633 20.6476C3.55118 20.6877 3.54003 20.7282 3.52802 20.7685L2.66567 21.6845L4.98433 24.96C4.98433 24.96 27.2372 35.2255 47.8789 25.1337C50.2368 24.7106 50.7864 21.1161 50.7864 21.1161Z" fill="#E43A25"></path><path d="M31.1075 19.2678C31.1075 19.2678 33.5702 16.5712 36.0329 19.2678C36.0329 19.2678 37.9679 22.8636 36.0329 24.6612C36.0329 24.6612 32.8666 27.1782 31.1075 24.6612C31.1075 24.6612 28.9966 22.6835 31.1075 19.2678Z" fill="#030404"></path><path d="M33.9587 20.2681C33.9587 21.3182 33.3398 22.1695 32.5764 22.1695C31.8133 22.1695 31.1943 21.3182 31.1943 20.2681C31.1943 19.2181 31.8133 18.3667 32.5764 18.3667C33.3398 18.3667 33.9587 19.2181 33.9587 20.2681Z" fill="white"></path><path d="M20.116 18.5315C20.116 18.5315 24.3404 16.661 25.4934 20.836C25.4934 20.836 26.7012 25.7022 22.0243 25.9769C22.0243 25.9769 16.0605 24.8282 20.116 18.5315Z" fill="#030404"></path><path d="M22.2377 20.337C22.2377 21.4198 21.5995 22.298 20.8121 22.298C20.0251 22.298 19.3867 21.4198 19.3867 20.337C19.3867 19.254 20.0251 18.376 20.8121 18.376C21.5995 18.376 22.2377 19.254 22.2377 20.337Z" fill="white"></path><path d="M5.70714 25.5303C6.26797 24.8929 7.6305 24.121 7.52613 23.1634C7.33932 21.4488 5.91752 20.1973 4.3505 20.3681C3.96185 20.4105 3.60091 20.5365 3.28048 20.728C3.25686 20.7225 3.23318 20.7172 3.2095 20.7129C3.2095 20.7129 -2.09 23.3146 0.930579 28.5199C0.959063 28.7826 6.95711 36.4808 8.6416 37.067C9.74409 37.4507 7.62339 30.4883 5.70714 25.5303Z" fill="#E43A25"></path><path d="M48.7628 25.2977C48.1137 24.7505 46.4022 24.2535 46.3634 23.291C46.2941 21.5677 47.5146 20.1192 49.0897 20.0559C49.4803 20.0401 49.8559 20.1113 50.2012 20.2531C50.2238 20.2442 50.2464 20.2354 50.2691 20.2277C50.2691 20.2277 55.8956 22.0151 53.6798 27.6106C53.6905 27.8747 48.9 36.3769 47.321 37.2064C46.2876 37.7492 47.6026 30.4849 48.7628 25.2977Z" fill="#E43A25"></path><path d="M9.77469 25.3433C9.77469 25.3433 9.70396 32.3646 16.5846 33.9314L18.0192 31.049C18.0192 31.049 13.0335 31.5313 12.6499 25.3433H9.77469Z" fill="#E43A25"></path><path d="M44.8156 25.3433C44.8156 25.3433 44.8863 32.3646 38.0057 33.9314L36.571 31.049C36.571 31.049 41.5568 31.5313 41.9403 25.3433H44.8156Z" fill="#E43A25"></path><path d="M39.8452 32.5045C38.8097 30.0016 35.4681 29.0079 32.3816 30.285C29.6648 31.4091 28.0534 33.9176 28.412 36.2094C30.557 36.176 32.858 36.037 35.0976 35.7124C35.0976 35.7124 33.7763 37.8482 31.8321 39.7121C33.1395 40.0496 34.6643 39.956 36.1316 39.3488C39.2181 38.0717 40.8808 35.0073 39.8452 32.5045Z" fill="#E43A25"></path><path d="M20.698 35.5929C20.698 35.5929 23.521 35.966 27.3802 36.0611C27.7182 33.6314 25.8778 31.06 22.9414 30.0653C19.6973 28.9664 16.3451 30.2081 15.454 32.8387C14.5629 35.4694 16.4704 38.4928 19.7145 39.5918C21.1526 40.0789 22.6117 40.1057 23.8684 39.7558C21.9809 37.8889 20.698 35.5929 20.698 35.5929Z" fill="#E43A25"></path></g><defs><clipPath id="clip0_2999_391"><rect width="54.2105" height="40" fill="white"></rect></clipPath></defs></svg></g></g><animate attributeName="opacity" from="0" to="1" begin="0s" dur="0.2s" fill="freeze" calcMode="spline" keyTimes="0;1" keySplines="0.42 0 0.58 1"></animate><animateMotion dur="15s" repeatCount="indefinite" begin="-2.5s" calcMode="linear" keyPoints="0.1;0.9" keyTimes="0;1"><mpath href="#path1"></mpath></animateMotion></g><g opacity="0"><g><circle r="35" fill="white" stroke="#62626314" stroke-width="1"></circle><g transform="translate(-20, -20)"><svg width="40" height="40" viewBox="0 0 32 32" xmlns="http://www.w3.org/2000/svg"><title>file_type_nestjs</title><path d="M18.487,2a1.781,1.781,0,0,0-.564.1c1.615,1.062-.29,2.6.6,3.9A2.235,2.235,0,0,1,19.6,3.765c.285-.237.468-.322.407-.714C19.908,2.409,19.052,2,18.487,2Zm2.3.414c-.223,1.123-.5,1.164-1.323,1.887a1.821,1.821,0,0,0-.527,2.191c-3.4-1.32-7.758-2.118-10.953.166-1.149.821-1.85,2-3.267,2.481-.916.314-1.816.221-2.39,1.129A1.413,1.413,0,0,0,2.383,12.1c.171.175.5.287.636.465.079.1.077.2.152.333a2.6,2.6,0,0,0,.564.828c.147.121.652.239.738.368.108.161-.172.8.063.9.158.073.621-.744.666-.816-.092.643-.213,1.784.51.834.343-.451.364-.6.941-.7a8.2,8.2,0,0,1,1.117-.116,8.362,8.362,0,0,1,8.622,7.622c-.108-.5-.761-1.3-1.369-1.11-.259.08-.355.527-.525.786a3.773,3.773,0,0,1-.785.868,4.687,4.687,0,0,0-.072-1.452c-.182.748-.547,1.989-1.466,1.788a1.652,1.652,0,0,1-1.328-1.142c-.119-.76.684-1.651-.607-1.714-2.59-.127-1.991,3.682-.462,4.675a3.272,3.272,0,0,0-1.015.283,6.893,6.893,0,0,0,10.276-4.922,7.058,7.058,0,0,1-.015,3.085,7.213,7.213,0,0,1-.554,1.559,6.781,6.781,0,0,1-1.3,1.81c-.314.311-.89.624-1.088.941a13.409,13.409,0,0,0,3.52-.968A11.638,11.638,0,0,1,15.1,30a11.589,11.589,0,0,0,9.3-5.909,11.657,11.657,0,0,1-1.945,4.668,11.531,11.531,0,0,0,4.975-7.783,11.622,11.622,0,0,1,.209,3.5A12.418,12.418,0,0,0,29.528,13.91a15.755,15.755,0,0,0-1.689-3.962A14.838,14.838,0,0,0,26.9,8.554c-.133-.173-.844-.806-.844-1q-.009.029-.015,0c0,3.248-3.5,5.333-6.431,4.463A5,5,0,0,0,24.156,7.85,5,5,0,0,0,20.787,2.414Z" style="fill:#ea2845;fill-rule:evenodd"></path></svg></g></g><animate attributeName="opacity" from="0" to="1" begin="0s" dur="0.2s" fill="freeze" calcMode="spline" keyTimes="0;1" keySplines="0.42 0 0.58 1"></animate><animateMotion dur="15s" repeatCount="indefinite" begin="-5s" calcMode="linear" keyPoints="0.1;0.9" keyTimes="0;1"><mpath href="#path1"></mpath></animateMotion></g><g opacity="0"><g><circle r="35" fill="white" stroke="#62626314" stroke-width="1"></circle><g transform="translate(-20, -20)"><svg width="40" height="40" viewBox="0 0 24 24" xmlns="http://www.w3.org/2000/svg"><g fill="none"><path fill="#8CC5E7" d="M21.4679537,3.20617761 C22.1814672,4.67953668 20.0131274,4.83706564 20.1243243,5.49498069 C20.3281853,6.68108108 20.1891892,8.44169884 20.0316602,10.1745174 C19.7629344,13.1119691 21.9590734,20.1451737 17.3814672,22.9714286 C16.5196911,23.5088803 14.4718147,23.8054054 12.4517375,23.8517375 C12.4517375,23.8517375 12.442471,23.8517375 12.442471,23.8517375 C12.442471,23.8517375 12.4332046,23.8517375 12.4332046,23.8517375 C10.4131274,23.8054054 8.08725869,23.5088803 7.22548263,22.9714286 C2.65714286,20.1451737 4.85328185,13.1119691 4.59382239,10.1745174 C4.42702703,8.44169884 4.28803089,6.68108108 4.5011583,5.49498069 C4.61235521,4.83706564 2.44401544,4.68880309 3.15752896,3.20617761 C3.76911197,1.93667954 5.27953668,3.05791506 5.65945946,2.65945946 C7.596139,0.648648649 9.94980695,0.111196911 11.8030888,0.0648648649 C11.988417,0.0648648649 12.8223938,0.0648648649 12.8223938,0.0648648649 C14.6664093,0.157528958 17.0200772,0.657915058 18.9660232,2.65945946 C19.3459459,3.05791506 20.8471042,1.93667954 21.4679537,3.20617761 Z M11.4324324,10.9065637 C11.3490347,10.9436293 11.2100386,11.8517375 11.6362934,11.8980695 C11.9235521,11.9258687 12.7111969,12.0185328 12.8965251,11.8980695 C13.2579151,11.6664093 13.2208494,11.1104247 13.0169884,10.9714286 C12.6741313,10.7490347 11.5250965,10.8602317 11.4324324,10.9065637 Z M9.07876448,4.10501931 C8.12432432,3.99382239 6.52123552,4.88339768 6.28030888,6.77374517 C6.02084942,8.73822394 8.33745174,10.6841699 10.56139,8.73822394 C11.7567568,7.69111969 12.1737452,4.46640927 9.07876448,4.10501931 Z M15.5281853,4.10501931 C12.4332046,4.46640927 12.8501931,7.69111969 14.0455598,8.73822394 C16.2694981,10.6841699 18.5861004,8.73822394 18.3266409,6.77374517 C18.0949807,4.88339768 16.4918919,3.99382239 15.5281853,4.10501931 Z"></path><path fill="#B8937F" d="M12.3127413,8.98841699 C12.8965251,8.90501931 14.2957529,9.57220077 14.2030888,10.3598456 C14.0918919,11.2772201 10.5984556,11.3976834 10.4131274,10.3042471 C10.3019305,9.63706564 10.8301158,9.21081081 12.3127413,8.98841699 Z M20.1984556,16.3737452 C19.9111969,16.3644788 19.7258687,15.984556 19.7258687,15.7528958 C19.7258687,15.3359073 19.7814672,14.8447876 20.0872587,14.6316602 C20.7173745,14.196139 21.2177606,16.3830116 20.1984556,16.3737452 Z M4.41776062,16.3737452 C3.3984556,16.3830116 3.8988417,14.196139 4.52895753,14.6316602 C4.83474903,14.8447876 4.89034749,15.3359073 4.89034749,15.7528958 C4.89034749,15.984556 4.70501931,16.3644788 4.41776062,16.3737452 Z M18.2617761,23.0918919 C18.4471042,23.3606178 18.4563707,23.5459459 18.1598456,23.6849421 C17.0293436,24.203861 16.019305,23.5088803 16.3992278,23.3142857 C17.2054054,22.9065637 17.7057915,22.2671815 18.2617761,23.0918919 Z M6.35444015,23.184556 C6.91042471,22.3598456 7.41081081,22.9992278 8.21698842,23.4069498 C8.5969112,23.6015444 7.58687259,24.2965251 6.45637066,23.7776062 C6.15984556,23.63861 6.16911197,23.4532819 6.35444015,23.184556 Z"></path><path fill="#000000" d="M19.7351351,3.42857143 C19.7814672,3.23397683 20.2633205,3.14131274 20.5320463,3.47490347 C20.8563707,3.87335907 20.0594595,4.42007722 20.0223938,4.1976834 C19.9297297,3.5953668 19.6795367,3.62316602 19.7351351,3.42857143 Z M4.88108108,3.42857143 C4.93667954,3.62316602 4.68648649,3.5953668 4.59382239,4.1976834 C4.55675676,4.42007722 3.75984556,3.87335907 4.08416988,3.47490347 C4.34362934,3.14131274 4.82548263,3.23397683 4.88108108,3.42857143 Z M15.7413127,7.94131274 C15.1578953,7.94131274 14.6849421,7.46835949 14.6849421,6.88494208 C14.6849421,6.30152468 15.1578953,5.82857143 15.7413127,5.82857143 C16.3247301,5.82857143 16.7976834,6.30152468 16.7976834,6.88494208 C16.7976834,7.46835949 16.3247301,7.94131274 15.7413127,7.94131274 Z M15.4633205,6.76447876 C15.6475575,6.76447876 15.7969112,6.61512511 15.7969112,6.43088803 C15.7969112,6.24665096 15.6475575,6.0972973 15.4633205,6.0972973 C15.2790834,6.0972973 15.1297297,6.24665096 15.1297297,6.43088803 C15.1297297,6.61512511 15.2790834,6.76447876 15.4633205,6.76447876 Z M11.3583012,9.43320463 C11.4694981,9.00694981 11.8586873,8.86795367 12.1737452,8.85868726 C12.9799228,8.84015444 13.2857143,9.27567568 13.3135135,9.61853282 C13.369112,10.2023166 11.1081081,10.3413127 11.3583012,9.43320463 Z M8.87490347,7.94131274 C8.29148607,7.94131274 7.81853282,7.46835949 7.81853282,6.88494208 C7.81853282,6.30152468 8.29148607,5.82857143 8.87490347,5.82857143 C9.45832088,5.82857143 9.93127413,6.30152468 9.93127413,6.88494208 C9.93127413,7.46835949 9.45832088,7.94131274 8.87490347,7.94131274 Z M9.15289575,6.76447876 C9.33713283,6.76447876 9.48648649,6.61512511 9.48648649,6.43088803 C9.48648649,6.24665096 9.33713283,6.0972973 9.15289575,6.0972973 C8.96865868,6.0972973 8.81930502,6.24665096 8.81930502,6.43088803 C8.81930502,6.61512511 8.96865868,6.76447876 9.15289575,6.76447876 Z"></path></g></svg></g></g><animate attributeName="opacity" from="0" to="1" begin="0s" dur="0.2s" fill="freeze" calcMode="spline" keyTimes="0;1" keySplines="0.42 0 0.58 1"></animate><animateMotion dur="15s" repeatCount="indefinite" begin="-7.5s" calcMode="linear" keyPoints="0.1;0.9" keyTimes="0;1"><mpath href="#path1"></mpath></animateMotion></g><g opacity="0"><g><circle r="35" fill="white" stroke="#62626314" stroke-width="1"></circle><g transform="translate(-20, -20)"><svg xmlns="http://www.w3.org/2000/svg" width="40" height="40" viewBox="0 0 40 40" fill="none"><g clip-path="url(#clip0_2996_489)"><path d="M0 20V0H40V40H0" fill="#007ACC"></path><path d="M8.77002 20.07V21.7H13.97V36.5H17.66V21.7H22.86V20.1C22.86 19.2 22.86 18.47 22.82 18.45C22.82 18.42 19.65 18.41 15.8 18.41L8.80002 18.44V20.08L8.77002 20.07ZM32.14 18.4C33.16 18.64 33.94 19.1 34.64 19.83C35.01 20.23 35.56 20.93 35.6 21.11C35.6 21.17 33.87 22.34 32.82 22.99C32.78 23.02 32.62 22.85 32.46 22.59C31.94 21.85 31.41 21.53 30.58 21.47C29.38 21.39 28.58 22.02 28.58 23.07C28.58 23.39 28.64 23.57 28.76 23.83C29.03 24.38 29.53 24.71 31.08 25.39C33.94 26.62 35.18 27.43 35.93 28.59C36.78 29.89 36.97 31.93 36.4 33.46C35.76 35.13 34.2 36.26 31.97 36.63C31.27 36.75 29.67 36.73 28.92 36.6C27.32 36.3 25.79 35.5 24.85 34.47C24.48 34.07 23.77 33 23.81 32.93L24.19 32.69L25.69 31.82L26.82 31.16L27.08 31.51C27.41 32.03 28.15 32.73 28.58 32.97C29.88 33.64 31.62 33.55 32.48 32.77C32.85 32.43 33.01 32.07 33.01 31.57C33.01 31.11 32.94 30.9 32.71 30.55C32.39 30.11 31.75 29.75 29.95 28.95C27.88 28.07 27 27.51 26.18 26.65C25.71 26.13 25.28 25.32 25.08 24.65C24.93 24.07 24.88 22.65 25.02 22.08C25.45 20.08 26.96 18.68 29.12 18.28C29.82 18.14 31.47 18.2 32.16 18.38L32.14 18.4Z" fill="white"></path></g><defs><clipPath id="clip0_2996_489"><rect width="40" height="40" fill="white"></rect></clipPath></defs></svg></g></g><animate attributeName="opacity" from="0" to="1" begin="0s" dur="0.2s" fill="freeze" calcMode="spline" keyTimes="0;1" keySplines="0.42 0 0.58 1"></animate><animateMotion dur="15s" repeatCount="indefinite" begin="-10s" calcMode="linear" keyPoints="0.1;0.9" keyTimes="0;1"><mpath href="#path1"></mpath></animateMotion></g><g opacity="0"><g><circle r="35" fill="white" stroke="#62626314" stroke-width="1"></circle><g transform="translate(-20, -20)"><svg width="40" height="40" viewBox="-27 0 310 310" version="1.1" xmlns="http://www.w3.org/2000/svg" xmlns:xlink="http://www.w3.org/1999/xlink" preserveAspectRatio="xMidYMid"><g><path d="M254.312882,235.518775 L148.000961,9.74987264 C145.309805,4.08935083 139.731924,0.359884549 133.472618,0.0359753113 C127.198908,-0.384374336 121.212054,2.71925839 117.939655,8.08838662 L2.63252565,194.847143 C-0.947129465,200.604248 -0.871814894,207.912774 2.8257217,213.594888 L59.2003287,300.896318 C63.5805009,307.626626 71.8662281,310.673635 79.5631922,308.384597 L243.161606,259.992851 C248.145475,258.535702 252.252801,254.989363 254.421072,250.271225 C256.559881,245.57581 256.523135,240.176915 254.32061,235.511047 L254.312882,235.518775 Z M230.511129,245.201761 L91.6881763,286.252058 C87.4533189,287.511696 83.388474,283.840971 84.269448,279.567474 L133.866738,42.0831633 C134.794079,37.6396542 140.929985,36.9364206 142.869673,41.0476325 L234.684164,236.021085 C235.505704,237.779423 235.515611,239.809427 234.711272,241.575701 C233.906934,243.341974 232.369115,244.667163 230.503401,245.201761 L230.511129,245.201761 Z" fill="#000000" fill-rule="nonzero"></path></g></svg></g></g><animate attributeName="opacity" from="0" to="1" begin="0s" dur="0.2s" fill="freeze" calcMode="spline" keyTimes="0;1" keySplines="0.42 0 0.58 1"></animate><animateMotion dur="15s" repeatCount="indefinite" begin="-12.5s" calcMode="linear" keyPoints="0.1;0.9" keyTimes="0;1"><mpath href="#path1"></mpath></animateMotion></g><g opacity="0"><g><circle r="35" fill="white" stroke="#62626314" stroke-width="1"></circle><g transform="translate(-20, -20)"><svg width="40" height="40" viewBox="-18.458 -22.75 191.151 191.151" xmlns="http://www.w3.org/2000/svg"><path d="M-18.458 6.58h191.151v132.49H-18.458V6.58z" fill="none"></path><path d="M40.054 113.583h-5.175c-.183-8.735-.687-16.947-1.511-24.642h-.046l-7.879 24.642h-3.94l-7.832-24.642h-.045c-.581 7.388-.947 15.602-1.099 24.642H7.81c.304-10.993 1.068-21.299 2.289-30.919h6.414l7.465 22.719h.046l7.511-22.719h6.137c1.344 11.268 2.138 21.575 2.382 30.919M62.497 90.771c-2.107 11.434-4.887 19.742-8.337 24.928-2.688 3.992-5.633 5.99-8.84 5.99-.855 0-1.91-.258-3.16-.77v-2.757c.611.088 1.328.138 2.152.138 1.498 0 2.702-.412 3.62-1.238 1.098-1.006 1.647-2.137 1.647-3.388 0-.858-.428-2.612-1.282-5.268L42.618 90.77h5.084l4.076 13.19c.916 2.995 1.298 5.086 1.145 6.277 2.229-5.953 3.786-12.444 4.673-19.468h4.901v.002z" fill="#5d87a1"></path><path d="M131.382 113.583h-14.7V82.664h4.945v27.113h9.755v3.806zM112.834 114.33l-5.684-2.805c.504-.414.986-.862 1.42-1.381 2.416-2.838 3.621-7.035 3.621-12.594 0-10.229-4.014-15.346-12.045-15.346-3.938 0-7.01 1.298-9.207 3.895-2.414 2.84-3.619 7.022-3.619 12.551 0 5.435 1.068 9.422 3.205 11.951 1.955 2.291 4.902 3.438 8.843 3.438 1.47 0 2.819-.18 4.048-.543l7.4 4.308 2.018-3.474zm-18.413-6.934c-1.252-2.014-1.878-5.248-1.878-9.707 0-7.785 2.365-11.682 7.1-11.682 2.475 0 4.289.932 5.449 2.792 1.25 2.017 1.879 5.222 1.879 9.619 0 7.849-2.367 11.774-7.099 11.774-2.476.001-4.29-.928-5.451-2.796M85.165 105.013c0 2.622-.962 4.773-2.884 6.458-1.924 1.678-4.504 2.519-7.737 2.519-3.024 0-5.956-.966-8.794-2.888l1.329-2.655c2.442 1.223 4.653 1.831 6.638 1.831 1.863 0 3.319-.413 4.375-1.232 1.055-.822 1.684-1.975 1.684-3.433 0-1.837-1.281-3.407-3.631-4.722-2.167-1.19-6.501-3.678-6.501-3.678-2.349-1.712-3.525-3.55-3.525-6.578 0-2.506.877-4.529 2.632-6.068 1.757-1.545 4.024-2.315 6.803-2.315 2.87 0 5.479.769 7.829 2.291l-1.192 2.656c-2.01-.854-3.994-1.281-5.951-1.281-1.585 0-2.809.381-3.66 1.146-.858.762-1.387 1.737-1.387 2.933 0 1.828 1.308 3.418 3.722 4.759 2.196 1.192 6.638 3.723 6.638 3.723 2.409 1.709 3.612 3.53 3.612 6.534" fill="#f8981d"></path><path d="M137.59 72.308c-2.99-.076-5.305.225-7.248 1.047-.561.224-1.453.224-1.531.933.303.3.338.784.601 1.198.448.747 1.229 1.752 1.942 2.276.783.6 1.569 1.194 2.393 1.717 1.453.899 3.1 1.422 4.516 2.318.825.521 1.645 1.195 2.471 1.756.406.299.666.784 1.193.971v-.114c-.264-.336-.339-.822-.598-1.196l-1.122-1.082c-1.084-1.456-2.431-2.727-3.884-3.771-1.196-.824-3.812-1.944-4.297-3.322l-.076-.076c.822-.077 1.797-.375 2.578-.604 1.271-.335 2.43-.259 3.734-.594.6-.15 1.195-.338 1.797-.523v-.337c-.676-.673-1.158-1.567-1.869-2.203-1.902-1.643-3.998-3.25-6.164-4.595-1.16-.749-2.652-1.231-3.887-1.868-.445-.225-1.195-.336-1.457-.71-.67-.822-1.047-1.904-1.533-2.877-1.08-2.053-2.129-4.331-3.061-6.502-.674-1.456-1.084-2.91-1.906-4.257-3.85-6.35-8.031-10.196-14.457-13.971-1.381-.786-3.024-1.121-4.779-1.533l-2.803-.148c-.598-.262-1.197-.973-1.719-1.309-2.132-1.344-7.621-4.257-9.189-.411-1.01 2.431 1.494 4.821 2.354 6.054.635.856 1.458 1.83 1.902 2.802.263.635.337 1.309.6 1.98.598 1.644 1.157 3.473 1.943 5.007.41.782.857 1.604 1.381 2.312.3.414.822.597.936 1.272-.521.744-.562 1.867-.861 2.801-1.344 4.221-.819 9.45 1.086 12.552.596.934 2.018 2.99 3.92 2.202 1.684-.672 1.311-2.801 1.795-4.668.111-.451.038-.747.262-1.043v.073c.521 1.045 1.047 2.052 1.53 3.1 1.159 1.829 3.177 3.735 4.858 5.002.895.676 1.604 1.832 2.725 2.245V74.1h-.074c-.227-.335-.559-.485-.857-.745-.674-.673-1.42-1.495-1.943-2.241-1.566-2.093-2.952-4.41-4.182-6.801-.602-1.16-1.121-2.428-1.606-3.586-.226-.447-.226-1.121-.601-1.346-.562.821-1.381 1.532-1.791 2.538-.711 1.609-.785 3.588-1.049 5.646l-.147.072c-1.19-.299-1.604-1.53-2.056-2.575-1.119-2.654-1.307-6.914-.336-9.976.26-.783 1.385-3.249.936-3.995-.225-.715-.973-1.122-1.383-1.685-.482-.708-1.01-1.604-1.346-2.39-.896-2.091-1.347-4.408-2.312-6.498-.451-.974-1.234-1.982-1.868-2.879-.712-1.008-1.495-1.718-2.058-2.913-.186-.411-.447-1.083-.148-1.53.073-.3.225-.412.523-.487.484-.409 1.867.111 2.352.336 1.385.56 2.543 1.083 3.699 1.867.523.375 1.084 1.085 1.755 1.272h.786c1.193.26 2.538.072 3.661.41 1.979.636 3.772 1.569 5.38 2.576 4.893 3.103 8.928 7.512 11.652 12.778.447.858.637 1.644 1.045 2.539.787 1.832 1.76 3.7 2.541 5.493.785 1.755 1.533 3.547 2.654 5.005.559.784 2.805 1.195 3.812 1.606.745.335 1.905.633 2.577 1.044 1.271.783 2.537 1.682 3.732 2.543.595.448 2.465 1.382 2.576 2.13M99.484 39.844a5.82 5.82 0 0 0-1.529.188v.075h.072c.301.597.824 1.011 1.197 1.532.301.599.562 1.193.857 1.791l.072-.074c.527-.373.789-.971.789-1.868-.227-.264-.262-.522-.451-.784-.22-.374-.705-.56-1.007-.86" fill="#5d87a1"></path><path d="M141.148 113.578h.774v-3.788h-1.161l-.947 2.585-1.029-2.585h-1.118v3.788h.731v-2.882h.041l1.078 2.882h.557l1.074-2.882v2.882zm-6.235 0h.819v-3.146h1.072v-.643h-3.008v.643h1.115l.002 3.146z" fill="#f8981d"></path></svg></g></g><animate attributeName="opacity" from="0" to="1" begin="0s" dur="0.2s" fill="freeze" calcMode="spline" keyTimes="0;1" keySplines="0.42 0 0.58 1"></animate><animateMotion dur="15s" repeatCount="indefinite" begin="-15s" calcMode="linear" keyPoints="0.1;0.9" keyTimes="0;1"><mpath href="#path1"></mpath></animateMotion></g></g><g id="icons-path2"><g opacity="0"><g><circle r="35" fill="white" stroke="#62626314" stroke-width="1"></circle><g transform="translate(-20, -20)"><svg width="40" height="40" viewBox="0 0 24 24" fill="none" xmlns="http://www.w3.org/2000/svg"><g clip-path="url(#clip0)"><path d="M11.2141 0.00645944C11.1625 0.0111515 10.9982 0.0275738 10.8504 0.039304C7.44164 0.346635 4.24868 2.18593 2.22639 5.01291C1.10029 6.58476 0.380059 8.36775 0.107918 10.2563C0.0117302 10.9156 0 11.1103 0 12.0041C0 12.898 0.0117302 13.0927 0.107918 13.7519C0.760117 18.2587 3.96716 22.0452 8.31672 23.4481C9.0956 23.6991 9.91672 23.8704 10.8504 23.9736C11.2141 24.0135 12.7859 24.0135 13.1496 23.9736C14.7613 23.7953 16.1267 23.3965 17.4733 22.7091C17.6798 22.6035 17.7196 22.5754 17.6915 22.5519C17.6727 22.5378 16.793 21.3578 15.7372 19.9314L13.8182 17.339L11.4135 13.7801C10.0903 11.8235 9.00176 10.2235 8.99238 10.2235C8.98299 10.2211 8.97361 11.8024 8.96891 13.7331C8.96188 17.1138 8.95953 17.2499 8.9173 17.3296C8.85631 17.4446 8.80938 17.4915 8.71085 17.5431C8.63578 17.5807 8.57009 17.5877 8.21584 17.5877H7.80997L7.70205 17.5197C7.63167 17.4751 7.58006 17.4164 7.54487 17.3484L7.4956 17.2428L7.50029 12.539L7.50733 7.83285L7.58006 7.74136C7.6176 7.69209 7.69736 7.62875 7.75367 7.59825C7.84985 7.55133 7.88739 7.54664 8.29325 7.54664C8.77185 7.54664 8.85161 7.5654 8.97595 7.70147C9.01114 7.73901 10.3132 9.7003 11.871 12.0628C13.4287 14.4252 15.5589 17.651 16.6053 19.2346L18.5056 22.1132L18.6018 22.0499C19.4534 21.4962 20.3543 20.7079 21.0674 19.8868C22.5853 18.1437 23.5636 16.0182 23.8921 13.7519C23.9883 13.0927 24 12.898 24 12.0041C24 11.1103 23.9883 10.9156 23.8921 10.2563C23.2399 5.74957 20.0328 1.96306 15.6833 0.560125C14.9161 0.311445 14.0997 0.140184 13.1848 0.036958C12.9595 0.0134976 11.4088 -0.0123089 11.2141 0.00645944ZM16.1267 7.26511C16.2393 7.32142 16.3308 7.42933 16.3636 7.54194C16.3824 7.60294 16.3871 8.90734 16.3824 11.8469L16.3754 16.0651L15.6317 14.9249L14.8856 13.7848V10.7185C14.8856 8.73608 14.895 7.62171 14.9091 7.56775C14.9466 7.43637 15.0287 7.33315 15.1413 7.27215C15.2375 7.22288 15.2727 7.21819 15.6411 7.21819C15.9883 7.21819 16.0493 7.22288 16.1267 7.26511Z" fill="#000000"></path></g><defs><clipPath id="clip0"><rect width="24" height="24" fill="white"></rect></clipPath></defs></svg></g></g><animate attributeName="opacity" from="0" to="1" begin="0s" dur="0.2s" fill="freeze" calcMode="spline" keyTimes="0;1" keySplines="0.42 0 0.58 1"></animate><animateMotion dur="15s" repeatCount="indefinite" begin="-2.5s" calcMode="linear" keyPoints="0.1;0.9" keyTimes="0;1"><mpath href="#path2"></mpath></animateMotion></g><g opacity="0"><g><circle r="35" fill="white" stroke="#62626314" stroke-width="1"></circle><g transform="translate(-20, -20)"><svg width="40" height="40" viewBox="-11.5 -10.23174 23 20.46348" fill="#61DAFB"><circle r="2.05" fill="#61DAFB"></circle><g stroke="#61DAFB" stroke-width="1" fill="none"><ellipse rx="11" ry="4.2"></ellipse><ellipse rx="11" ry="4.2" transform="rotate(60)"></ellipse><ellipse rx="11" ry="4.2" transform="rotate(120)"></ellipse></g></svg></g></g><animate attributeName="opacity" from="0" to="1" begin="0s" dur="0.2s" fill="freeze" calcMode="spline" keyTimes="0;1" keySplines="0.42 0 0.58 1"></animate><animateMotion dur="15s" repeatCount="indefinite" begin="-5.5s" calcMode="linear" keyPoints="0.1;0.9" keyTimes="0;1"><mpath href="#path2"></mpath></animateMotion></g><g opacity="0"><g><circle r="35" fill="white" stroke="#62626314" stroke-width="1"></circle><g transform="translate(-20, -20)"><svg xmlns="http://www.w3.org/2000/svg" width="43" height="44" viewBox="0 0 43 44" fill="none"><g clip-path="url(#clip0_2993_452)"><path d="M42.3115 7.4619L22.6583 42.6153C22.2525 43.3412 21.21 43.3454 20.7981 42.6232L0.755252 7.46517C0.306477 6.67819 0.979313 5.72481 1.87098 5.88436L21.5453 9.40186C21.6708 9.42429 21.7994 9.42407 21.9248 9.4012L41.1876 5.88926C42.0764 5.72726 42.7523 6.67329 42.3115 7.4619Z" fill="url(#paint0_linear_2993_452)"></path><path d="M30.917 1.27008L16.3731 4.12077C16.2569 4.14354 16.1516 4.2043 16.0737 4.29349C15.9957 4.38268 15.9497 4.49524 15.9427 4.61348L15.0481 19.7278C15.0431 19.8107 15.0576 19.8936 15.0903 19.9699C15.123 20.0462 15.1731 20.1139 15.2365 20.1675C15.2999 20.2211 15.3749 20.2591 15.4556 20.2787C15.5363 20.2982 15.6204 20.2987 15.7013 20.28L19.7506 19.3452C20.1294 19.2578 20.4718 19.5916 20.3938 19.9727L19.1908 25.8655C19.1099 26.262 19.482 26.6011 19.8692 26.4834L22.3703 25.7234C22.758 25.6057 23.1306 25.9457 23.0485 26.3426L21.1368 35.5988C21.0171 36.1778 21.787 36.4935 22.108 35.9972L22.3226 35.6656L34.1738 12.0075C34.3723 11.6114 34.03 11.1597 33.5952 11.2437L29.427 12.0483C29.0354 12.1239 28.7022 11.759 28.8127 11.3758L31.5331 1.94246C31.6437 1.55829 31.309 1.19325 30.917 1.27008Z" fill="url(#paint1_linear_2993_452)"></path></g><defs><linearGradient id="paint0_linear_2993_452" x1="-89.3592" y1="741.731" x2="5422.02" y2="8170.58" gradientUnits="userSpaceOnUse"><stop stop-color="#41D1FF"></stop><stop offset="1" stop-color="#BD34FE"></stop></linearGradient><linearGradient id="paint1_linear_2993_452" x1="2176.3" y1="203.5" x2="3309.19" y2="7916.61" gradientUnits="userSpaceOnUse"><stop stop-color="#FFEA83"></stop><stop offset="0.083" stop-color="#FFDD35"></stop><stop offset="1" stop-color="#FFA800"></stop></linearGradient><clipPath id="clip0_2993_452"><rect width="42.4458" height="42.6285" fill="white" transform="translate(0.306396 0.955078)"></rect></clipPath></defs></svg></g></g><animate attributeName="opacity" from="0" to="1" begin="0s" dur="0.2s" fill="freeze" calcMode="spline" keyTimes="0;1" keySplines="0.42 0 0.58 1"></animate><animateMotion dur="15s" repeatCount="indefinite" begin="-8.5s" calcMode="linear" keyPoints="0.1;0.9" keyTimes="0;1"><mpath href="#path2"></mpath></animateMotion></g><g opacity="0"><g><circle r="35" fill="white" stroke="#62626314" stroke-width="1"></circle><g transform="translate(-20, -20)"><svg xmlns="http://www.w3.org/2000/svg" width="40" height="40" viewBox="0 0 45 43" fill="none"><g clip-path="url(#clip0_2993_437)"><path d="M31.254 29.974C32.9051 29.8031 34.1576 28.3804 34.1007 26.673C34.0439 24.9657 32.6204 23.5998 30.9124 23.5998H30.7986C29.0334 23.6567 27.6671 25.1364 27.7241 26.9006C27.781 27.7543 28.1225 28.4941 28.635 29.0063C26.6992 32.8196 23.7386 35.6082 19.2978 37.9416C16.2802 39.5351 13.1489 40.1043 10.0176 39.706C7.45545 39.3644 5.46274 38.2263 4.21 36.348C2.38821 33.5594 2.21747 30.543 3.75473 27.5267C4.83655 25.364 6.54438 23.7704 7.6262 22.9737C7.39848 22.2338 7.05681 20.9818 6.88606 20.0713C-1.36948 26.047 -0.515391 34.1285 1.98974 37.9416C3.8685 40.7873 7.68318 42.5515 11.8963 42.5515C13.0349 42.5515 14.1736 42.4376 15.3123 42.1532C22.6 40.7304 28.1227 36.405 31.254 29.974ZM41.2746 22.9169C36.9475 17.8517 30.5709 15.063 23.2832 15.063H22.3723C21.8599 14.0386 20.7781 13.3556 19.5825 13.3556H19.4685C17.7037 13.4125 16.3374 14.8922 16.3942 16.6566C16.4511 18.3639 17.8745 19.7298 19.5825 19.7298H19.6962C20.9488 19.6728 22.0306 18.8761 22.4861 17.7947H23.5109C27.838 17.7947 31.9372 19.0467 35.6381 21.494C38.4847 23.3721 40.5344 25.8194 41.673 28.7787C42.6409 31.1691 42.5839 33.5024 41.5591 35.4945C39.965 38.5107 37.2891 40.1612 33.7592 40.1612C31.4818 40.1612 29.3183 39.4782 28.1795 38.966C27.5533 39.5351 26.4145 40.4456 25.6174 41.0149C28.0657 42.1531 30.5709 42.7792 32.9621 42.7792C38.4278 42.7792 42.4702 39.7627 44.0074 36.7465C45.6585 33.4455 45.5445 27.7543 41.2746 22.9169ZM12.3518 30.9413C12.4087 32.6487 13.8321 34.0145 15.5401 34.0145H15.654C17.419 33.9577 18.7853 32.4779 18.7284 30.7136C18.6716 29.0062 17.2481 27.6404 15.5401 27.6404H15.4263C15.3123 27.6404 15.1414 27.6404 15.0278 27.6972C12.6934 23.8272 11.7256 19.6159 12.0672 15.0629C12.2948 11.6481 13.4336 8.68864 15.4263 6.24136C17.0773 4.13561 20.2656 3.11121 22.4293 3.05443C28.4642 2.94053 31.0261 10.4529 31.1971 13.4693C31.9372 13.64 33.1898 14.0385 34.0439 14.323C33.3605 5.10341 27.6671 0.322754 22.2015 0.322754C17.0773 0.322754 12.3518 4.02206 10.4728 9.48559C7.85393 16.7703 9.56194 23.7704 12.7502 29.2909C12.4657 29.6892 12.2948 30.3152 12.3518 30.9413Z" fill="#764ABC"></path></g><defs><clipPath id="clip0_2993_437"><rect width="44.7407" height="42.6285" fill="white" transform="translate(0.253418 0.321289)"></rect></clipPath></defs></svg></g></g><animate attributeName="opacity" from="0" to="1" begin="0s" dur="0.2s" fill="freeze" calcMode="spline" keyTimes="0;1" keySplines="0.42 0 0.58 1"></animate><animateMotion dur="15s" repeatCount="indefinite" begin="-11.5s" calcMode="linear" keyPoints="0.1;0.9" keyTimes="0;1"><mpath href="#path2"></mpath></animateMotion></g><g opacity="0"><g><circle r="35" fill="white" stroke="#62626314" stroke-width="1"></circle><g transform="translate(-20, -20)"><svg xmlns="http://www.w3.org/2000/svg" width="40" height="40" viewBox="0 0 54 33" fill="none"><g clip-path="url(#clip0_2999_511)"><path d="M26.6357 0.692383C19.5311 0.692383 15.0905 4.24382 13.3143 11.3465C15.9786 7.79504 19.0869 6.46328 22.6393 7.35119C24.6661 7.85768 26.1148 9.32782 27.7183 10.9549C30.3306 13.6057 33.3537 16.6735 39.9572 16.6735C47.0618 16.6735 51.5025 13.1221 53.2786 6.01943C50.6143 9.57086 47.506 10.9026 43.9536 10.0147C41.9269 9.50823 40.4781 8.03809 38.8746 6.41105C36.2623 3.76022 33.2392 0.692383 26.6357 0.692383ZM13.3143 16.6735C6.20965 16.6735 1.76904 20.225 -0.00708008 27.3276C2.6572 23.7762 5.76546 22.4444 9.31791 23.3323C11.3446 23.8388 12.7933 25.309 14.3969 26.936C17.0092 29.5868 20.0323 32.6547 26.6357 32.6547C33.7404 32.6547 38.181 29.1032 39.9572 22.0006C37.2929 25.552 34.1846 26.8838 30.6322 25.9959C28.6054 25.4894 27.1567 24.0192 25.5532 22.3922C22.9409 19.7414 19.9178 16.6735 13.3143 16.6735Z" fill="url(#paint0_linear_2999_511)"></path></g><defs><linearGradient id="paint0_linear_2999_511" x1="-378.958" y1="1571.7" x2="-221.262" y2="3341.75" gradientUnits="userSpaceOnUse"><stop stop-color="#2298BD"></stop><stop offset="1" stop-color="#0ED7B5"></stop></linearGradient><clipPath id="clip0_2999_511"><rect width="53.2857" height="32.0475" fill="white" transform="translate(-0.00708008 0.649902)"></rect></clipPath></defs></svg></g></g><animate attributeName="opacity" from="0" to="1" begin="0s" dur="0.2s" fill="freeze" calcMode="spline" keyTimes="0;1" keySplines="0.42 0 0.58 1"></animate><animateMotion dur="15s" repeatCount="indefinite" begin="-14.5s" calcMode="linear" keyPoints="0.1;0.9" keyTimes="0;1"><mpath href="#path2"></mpath></animateMotion></g></g><g id="icons-path3"><g opacity="0"><g><circle r="35" fill="white" stroke="#62626314" stroke-width="1"></circle><g transform="translate(-20, -20)"><svg xmlns="http://www.w3.org/2000/svg" width="40" height="40" viewBox="0 0 37 40" fill="none"><g clip-path="url(#clip0_2999_559)"><path d="M34.0196 19.6629C34.0196 17.6117 32.3551 15.9487 30.3021 15.9487C30.17 15.9487 30.0398 15.9557 29.9113 15.9693L35.0172 0.922852H13.3189L18.4177 15.9562C18.3425 15.9514 18.2671 15.949 18.1917 15.9488C16.1387 15.9488 14.4743 17.6115 14.4743 19.6631C14.4743 21.3211 15.5619 22.725 17.0629 23.2026C16.2702 24.5746 15.2726 25.8105 14.1399 26.8782C12.5997 28.3299 10.8371 29.4307 8.93072 30.1089C6.66093 28.9439 5.58915 26.353 6.55621 24.0813C6.66546 23.8247 6.77697 23.5647 6.88352 23.3058C8.52785 22.9223 9.75331 21.4495 9.75331 19.6897C9.75331 17.6383 8.08889 15.9754 6.03575 15.9754C3.9826 15.9754 2.31833 17.6383 2.31833 19.6897C2.31833 20.9476 2.94464 22.0587 3.90223 22.7306C2.98214 24.8237 1.62961 27.0144 1.20819 29.5533C0.703152 32.5959 1.2065 35.8258 3.84039 37.6498C9.97449 41.8977 16.633 35.0165 23.6535 33.2866C26.1978 32.6598 28.9908 32.7608 31.2324 31.4637C32.9158 30.4895 34.0256 28.875 34.3405 27.0626C34.6518 25.2721 34.1981 23.4893 33.1549 22.0438C33.7146 21.3766 34.0208 20.5335 34.0196 19.6629Z" fill="#99425B"></path><path d="M33.4458 26.9073C33.1724 28.4809 32.1997 29.8553 30.7773 30.6786C29.4512 31.446 27.8622 31.675 26.1797 31.9173C25.2784 32.0471 24.3464 32.1816 23.436 32.4058C21.0286 32.999 18.6968 34.1562 16.4421 35.2753C11.9294 37.5149 8.03222 39.4488 4.35754 36.9041C1.66577 35.0402 1.79001 31.5914 2.1036 29.7017C2.39425 27.9507 3.18005 26.3382 3.93981 24.7788C4.06925 24.5138 4.19764 24.2483 4.32499 23.9822C4.70798 24.1352 5.10984 24.2359 5.51975 24.2817C4.74626 26.8322 5.96267 29.6054 8.51562 30.9157L8.86514 31.0952L9.23504 30.9635C11.2534 30.2453 13.1132 29.093 14.7628 27.5379C15.829 26.5327 16.7459 25.4207 17.4994 24.2325C17.7285 24.267 17.9598 24.2844 18.1915 24.2844C20.5348 24.2844 22.4751 22.5341 22.7754 20.2736C23.7345 20.2386 24.7533 20.2383 25.7179 20.2734C26.0179 22.5341 27.9586 24.2845 30.3018 24.2845C31.2816 24.2845 32.1904 23.9777 32.9391 23.4566C33.4588 24.5197 33.6528 25.7158 33.4458 26.9073ZM6.03568 16.8825C7.58492 16.8825 8.84519 18.1418 8.84519 19.6897C8.84519 20.2456 8.68189 20.7641 8.40156 21.2007C7.93458 21.9284 7.14072 22.4273 6.2287 22.4895C6.16488 22.4937 6.1005 22.4968 6.03568 22.4968C5.6904 22.4968 5.3597 22.4339 5.0539 22.3197C4.43803 22.0883 3.9223 21.6494 3.59566 21.0787C3.35311 20.6559 3.22567 20.177 3.22604 19.6897C3.22604 18.1418 4.48645 16.8825 6.03568 16.8825ZM15.3822 19.663C15.3822 18.2566 16.4227 17.0889 17.7746 16.887C17.9108 16.8665 18.05 16.8559 18.1917 16.8559C19.0924 16.8559 19.8943 17.2822 20.4085 17.9427C20.5373 18.1074 20.6474 18.286 20.7365 18.4751C20.9112 18.8467 21.0015 19.2524 21.0012 19.663C21.0012 19.8874 20.974 20.1055 20.924 20.3148C20.6502 21.46 19.6728 22.3355 18.4751 22.456C18.382 22.4653 18.2875 22.4701 18.1917 22.4701C17.6513 22.4705 17.1223 22.3143 16.669 22.0203C15.8956 21.5197 15.3822 20.6503 15.3822 19.663ZM27.1082 16.3248C26.4968 16.9079 26.0568 17.6471 25.8359 18.4622C24.777 18.4232 23.7169 18.4232 22.6579 18.4622C22.4202 17.5811 21.9275 16.8037 21.2645 16.2133L24.1718 10.3397L27.1082 16.3248ZM14.585 1.83019H33.7505L29.2238 15.1694C29.029 15.216 28.8375 15.2753 28.6505 15.3469L24.1789 6.23258L19.6945 15.2924C19.499 15.2254 19.2992 15.1716 19.0965 15.1314L14.585 1.83019ZM33.1113 19.6631C33.1113 19.9445 33.0693 20.2162 32.9919 20.4729C32.8082 21.077 32.4269 21.6021 31.9089 21.9638C31.4382 22.2939 30.8769 22.4707 30.3018 22.4702C29.0046 22.4702 27.9103 21.587 27.5885 20.3909C27.5246 20.1535 27.4923 19.9089 27.4923 19.6631C27.4923 19.2794 27.5698 18.9135 27.7099 18.5801C27.7822 18.4095 27.8712 18.2465 27.9757 18.0934C28.4813 17.3478 29.3344 16.856 30.3018 16.856C30.3905 16.856 30.478 16.8605 30.5647 16.8687C31.9911 17.0015 33.1113 18.2037 33.1113 19.6631ZM34.9273 19.6631C34.9273 17.4069 33.3002 15.5243 31.1572 15.1222L36.2835 0.015625H12.0523L17.1865 15.1527C15.118 15.6127 13.5663 17.4596 13.5663 19.663C13.5663 21.3175 14.4414 22.7707 15.7529 23.5873C15.1221 24.5264 14.3741 25.4101 13.5168 26.2183C12.1572 27.4997 10.6426 28.4716 9.00976 29.1111C7.36501 28.0788 6.66978 26.132 7.39176 24.4362L7.44836 24.3033L7.55449 24.0539C9.36099 23.4243 10.661 21.7065 10.661 19.6897C10.661 17.1413 8.58609 15.0682 6.03568 15.0682C3.48528 15.0682 1.41007 17.1413 1.41007 19.6897C1.41007 20.9759 1.93931 22.1407 2.7909 22.9794C2.63207 23.3156 2.47084 23.6507 2.30723 23.9846C1.52851 25.5825 0.646062 27.3935 0.312244 29.4047C-0.35058 33.3989 0.718656 36.5919 3.32311 38.3953C4.90348 39.4896 6.50846 39.92 8.1235 39.92C11.1645 39.92 14.2409 38.3935 17.2498 36.9001C19.4167 35.8249 21.6575 34.7129 23.8708 34.1674C24.6944 33.9645 25.5417 33.8423 26.4389 33.7131C28.2181 33.4566 30.0577 33.1915 31.6873 32.2486C33.5763 31.1554 34.8693 29.3216 35.2349 27.2178C35.5488 25.4115 35.1711 23.6025 34.2499 22.0681C34.6938 21.3444 34.9282 20.5118 34.9273 19.663V19.6631Z" fill="white"></path></g><defs><clipPath id="clip0_2999_559"><rect width="36.4352" height="40" fill="white"></rect></clipPath></defs></svg></g></g><animate attributeName="opacity" from="0" to="1" begin="0s" dur="0.2s" fill="freeze" calcMode="spline" keyTimes="0;1" keySplines="0.42 0 0.58 1"></animate><animateMotion dur="15s" repeatCount="indefinite" begin="-2.5s" calcMode="linear" keyPoints="0.1;0.9" keyTimes="0;1"><mpath href="#path3"></mpath></animateMotion></g><g opacity="0"><g><circle r="35" fill="white" stroke="#62626314" stroke-width="1"></circle><g transform="translate(-20, -20)"><svg xmlns="http://www.w3.org/2000/svg" width="40" height="40" viewBox="0 0 49 54" fill="none"><g clip-path="url(#clip0_2993_457)"><path d="M48.4919 23.0988C48.3573 22.9881 47.1459 22.081 44.544 22.081C43.871 22.081 43.1756 22.1474 42.5027 22.258C42.0092 18.8727 39.1604 17.2354 39.0482 17.1469L38.3529 16.7485L37.9043 17.3902C37.3435 18.2532 36.9173 19.2267 36.6705 20.2224C36.1995 22.1474 36.4911 23.9618 37.478 25.5105C36.2892 26.1744 34.3601 26.3293 33.9564 26.3513H2.10371C1.27378 26.3513 0.600821 27.0152 0.600821 27.8338C0.556017 30.5775 1.02703 33.3211 1.99162 35.9098C3.0907 38.742 4.72825 40.844 6.83681 42.1274C9.21452 43.5655 13.0951 44.3842 17.4692 44.3842C19.4432 44.3842 21.4171 44.2072 23.3687 43.8532C26.0828 43.3664 28.6849 42.4371 31.0851 41.0874C33.0521 39.9626 34.8245 38.5281 36.334 36.8392C38.8688 34.0292 40.3717 30.8873 41.4707 28.0993H41.9194C44.6785 28.0993 46.3832 27.0152 47.3253 26.0858C47.9534 25.5105 48.4244 24.8026 48.7609 24.006L48.9629 23.4307L48.4919 23.0988Z" fill="#0091E2"></path><path d="M5.06467 25.4439H9.3266C9.52854 25.4439 9.708 25.2891 9.708 25.0679V21.3064C9.708 21.1073 9.55094 20.9303 9.3266 20.9303H5.06467C4.86281 20.9303 4.68335 21.0851 4.68335 21.3064V25.0679C4.70575 25.2891 4.86281 25.444 5.06467 25.444V25.4439ZM10.9417 25.4439H15.2037C15.4055 25.4439 15.585 25.2891 15.585 25.0679V21.3064C15.585 21.1073 15.4279 20.9303 15.2037 20.9303H10.9416C10.7397 20.9303 10.5603 21.0851 10.5603 21.3064V25.0679C10.5827 25.2891 10.7398 25.444 10.9416 25.444M16.9307 25.444H21.1927C21.3946 25.444 21.5741 25.2891 21.5741 25.0679V21.3064C21.5741 21.1073 21.417 20.9303 21.1927 20.9303H16.9307C16.7289 20.9303 16.5494 21.0851 16.5494 21.3064V25.0679C16.5494 25.2891 16.7065 25.444 16.9307 25.444ZM22.8302 25.444H27.0922C27.2941 25.444 27.4735 25.2891 27.4735 25.0679V21.3064C27.4735 21.1073 27.3165 20.9303 27.0922 20.9303H22.8302C22.6283 20.9303 22.4489 21.0851 22.4489 21.3064V25.0679C22.4489 25.2891 22.6283 25.444 22.8302 25.444ZM10.9417 20.0674H15.2036C15.4054 20.0674 15.5849 19.8904 15.5849 19.6912V15.9298C15.5849 15.7306 15.4278 15.5536 15.2036 15.5536H10.9416C10.7397 15.5536 10.5603 15.7085 10.5603 15.9298V19.6912C10.5827 19.8903 10.7399 20.0674 10.9417 20.0674ZM16.9307 20.0674H21.1927C21.3946 20.0674 21.5741 19.8904 21.5741 19.6912V15.9298C21.5741 15.7306 21.417 15.5536 21.1927 15.5536H16.9307C16.7289 15.5536 16.5494 15.7085 16.5494 15.9298V19.6912C16.5494 19.8903 16.7065 20.0674 16.9307 20.0674ZM22.8302 20.0674H27.0922C27.2941 20.0674 27.4735 19.8904 27.4735 19.6912V15.9298C27.4735 15.7306 27.294 15.5536 27.0922 15.5536H22.8302C22.6283 15.5536 22.4489 15.7085 22.4489 15.9298V19.6912C22.4489 19.8903 22.6283 20.0674 22.8302 20.0674ZM22.8302 14.6686H27.0922C27.2941 14.6686 27.4735 14.5137 27.4735 14.2925V10.531C27.4735 10.3318 27.294 10.1548 27.0922 10.1548H22.8302C22.6283 10.1548 22.4489 10.3097 22.4489 10.531V14.2925C22.4489 14.4915 22.6283 14.6686 22.8302 14.6686ZM28.7745 25.444H33.0365C33.2383 25.444 33.4178 25.2891 33.4178 25.0679V21.3064C33.4178 21.1073 33.2608 20.9303 33.0365 20.9303H28.7746C28.5726 20.9303 28.3932 21.0851 28.3932 21.3064V25.0679C28.4156 25.2891 28.5727 25.444 28.7746 25.444" fill="#0091E2"></path></g><defs><clipPath id="clip0_2993_457"><rect width="48.4068" height="53.2857" fill="white" transform="translate(0.555908 0.626465)"></rect></clipPath></defs></svg></g></g><animate attributeName="opacity" from="0" to="1" begin="0s" dur="0.2s" fill="freeze" calcMode="spline" keyTimes="0;1" keySplines="0.42 0 0.58 1"></animate><animateMotion dur="15s" repeatCount="indefinite" begin="-7.5s" calcMode="linear" keyPoints="0.1;0.9" keyTimes="0;1"><mpath href="#path3"></mpath></animateMotion></g><g opacity="0"><g><circle r="35" fill="white" stroke="#62626314" stroke-width="1"></circle><g transform="translate(-20, -20)"><svg width="40" height="40" viewBox="-4 0 264 264" version="1.1" xmlns="http://www.w3.org/2000/svg" xmlns:xlink="http://www.w3.org/1999/xlink" preserveAspectRatio="xMidYMid"><g><path d="M255.007926,158.085617 C253.473109,153.437413 249.452194,150.199279 244.251788,149.42182 C241.799982,149.055852 238.991667,149.211935 235.668988,149.897164 C229.877358,151.092028 225.580342,151.546679 222.44449,151.635363 C234.280794,131.650217 243.905921,108.859714 249.446873,87.4065589 C258.406282,52.7182633 253.61855,36.9154365 248.023797,29.7669469 C233.217182,10.8477783 211.614448,0.683454965 185.55152,0.371879908 C171.649478,0.202198614 159.443658,2.94725173 153.077358,4.92075751 C147.149155,3.87547344 140.774577,3.29134411 134.08606,3.18315012 C121.550337,2.9833164 110.473164,5.71595381 101.008259,11.332582 C95.7670577,9.56127483 87.3580785,7.06335335 77.6460416,5.46882217 C54.8035104,1.71868822 36.3939769,4.64110855 22.9282587,14.153903 C6.62230023,25.6721293 -0.937090069,45.6838799 0.461154734,73.6339954 C0.904572748,82.5082679 5.86908083,109.507695 13.6850624,135.114199 C18.1771824,149.831538 22.9672794,162.053912 27.9223279,171.443732 C34.9490254,184.758688 42.4676212,192.600092 50.9085266,195.415501 C55.6400924,196.992296 64.2358984,198.09552 73.2774873,190.566873 C74.4232794,191.953885 75.9515935,193.33321 77.9812656,194.613801 C80.5578199,196.239076 83.7090439,197.566965 86.8555381,198.353885 C98.1969885,201.189395 108.820102,200.479926 117.882975,196.506309 C117.93855,198.117986 117.981709,199.658125 118.018365,200.987788 C118.07867,203.145164 118.137792,205.259972 118.217016,207.237617 C118.753848,220.612286 119.663741,231.011326 122.359723,238.286928 C122.507529,238.687778 122.706771,239.29733 122.917247,239.943538 C124.261691,244.062005 126.511298,250.955677 132.232573,256.355326 C138.158411,261.947714 145.325229,263.663446 151.888998,263.662855 C155.180933,263.662855 158.322106,263.231261 161.076619,262.640628 C170.897441,260.536462 182.050291,257.329663 190.118134,245.84218 C197.745515,234.981986 201.453672,218.625182 202.124711,192.851363 C202.211621,192.122975 202.292028,191.427104 202.369478,190.763751 C202.421506,190.316194 202.474716,189.858587 202.528517,189.402162 L204.325838,189.560018 L204.788767,189.591353 C214.791095,190.047187 227.021155,187.925875 234.532065,184.437062 C240.467363,181.68255 259.485857,171.642383 255.007926,158.085617" fill="#000000"></path><path d="M237.905589,160.722476 C208.165838,166.857016 206.121386,156.78788 206.121386,156.78788 C237.521885,110.194697 250.64824,51.0516028 239.320388,36.5766651 C208.417109,-2.90823095 154.921977,15.7655797 154.029229,16.2503834 L153.741894,16.3018199 C147.866309,15.0821247 141.290716,14.3555104 133.900416,14.2349007 C120.443566,14.0143741 110.236083,17.7627344 102.490457,23.636545 C102.490457,23.636545 7.06039723,-15.6768961 11.4987159,73.0806097 C12.4429007,91.9631224 38.5625866,215.954032 69.7171363,178.502947 C81.1041109,164.808425 92.1061986,153.229303 92.1061986,153.229303 C97.5708822,156.859418 104.112776,158.711132 110.970975,158.046005 L111.503667,157.593718 C111.338125,159.294079 111.413801,160.957192 111.717099,162.925968 C103.691233,171.893062 106.049626,173.467492 90.0055797,176.770069 C73.7711594,180.115806 83.308194,186.072388 89.5349654,187.629081 C97.0837136,189.516859 114.54788,192.190965 126.34812,175.672166 L125.877506,177.556988 C129.022226,180.075603 131.230448,193.940397 130.860342,206.508637 C130.490236,219.077469 130.243104,227.706383 132.720924,234.446337 C135.198744,241.186291 137.668286,256.351187 158.759612,251.831871 C176.383409,248.055132 185.516046,238.268009 186.786587,221.94254 C187.688203,210.336222 189.728517,212.051954 189.857404,201.675381 L191.493912,196.762901 C193.381099,181.029838 191.793663,175.95418 202.651492,178.314938 L205.290125,178.546697 C213.2817,178.9103 223.741044,177.261376 229.879723,174.408129 C243.098309,168.273589 250.93794,158.031224 237.904406,160.722476 L237.905589,160.722476" fill="#336791"></path><path d="M108.076342,81.5250624 C105.396915,81.152 102.969349,81.4972748 101.741376,82.426679 C101.050236,82.9499122 100.836804,83.5559169 100.779455,83.973321 C100.625145,85.0783187 101.399649,86.2997875 101.874993,86.9300323 C103.220619,88.7137552 105.18703,89.9399538 107.133339,90.2101432 C107.415353,90.249164 107.695594,90.2680831 107.974651,90.2680831 C111.220471,90.2680831 114.170679,87.7411917 114.430818,85.8758799 C114.755991,83.5399538 111.36473,81.9826697 108.076342,81.5250624" fill="#FFFFFF"></path><path d="M196.860453,81.5989654 L196.859861,81.5989654 C196.604453,79.7679446 193.345626,79.2458938 190.253524,79.6757136 C187.166152,80.1061247 184.171603,81.4996397 184.421691,83.3347991 C184.622707,84.7620139 187.19867,87.198448 190.249386,87.1978568 C190.506568,87.1978568 190.766707,87.1807113 191.028619,87.1440554 C193.064794,86.8620416 194.558818,85.5690346 195.268286,84.8235012 C196.349635,83.688351 196.974559,82.4219492 196.860453,81.5989654" fill="#FFFFFF"></path><path d="M247.802088,160.025423 C246.66812,156.596323 243.018494,155.492508 236.954309,156.745312 C218.949173,160.461155 212.501284,157.886965 210.38352,156.327908 C224.378975,135.007187 235.89188,109.236323 242.102688,85.1906513 C245.04521,73.8007206 246.670485,63.2231316 246.802919,54.601903 C246.949543,45.1375889 245.338457,38.1842032 242.014005,33.9362587 C228.611547,16.8108637 208.942115,7.62501617 185.131751,7.37256351 C168.763122,7.18869284 154.93321,11.3781062 152.252009,12.5558245 C146.60582,11.1516674 140.450587,10.2896628 133.750245,10.1796952 C121.461654,9.98104388 110.840314,12.9229746 102.045857,18.9191686 C98.2259584,17.4978661 88.3536998,14.10897 76.2814965,12.1644342 C55.4089238,8.80332564 38.8233164,11.3497275 26.9870115,19.7350577 C12.8638522,29.740933 6.34383372,47.626642 7.60727945,72.8943741 C8.03236952,81.3961755 12.8756767,107.547788 20.5202032,132.593219 C30.5822448,165.556915 41.5192979,184.218309 53.0280647,188.056536 C54.374873,188.505866 55.9286097,188.820397 57.6407945,188.820397 C61.8390762,188.820397 66.9856813,186.927889 72.3409885,180.490051 C81.2359538,169.788896 89.5408776,160.821801 92.6022356,157.563566 C97.1262818,159.992314 102.09552,161.347991 107.179455,161.483972 C107.188323,161.616998 107.201921,161.750023 107.213746,161.882457 C106.193885,163.092102 105.357303,164.152166 104.644286,165.05733 C101.122365,169.528166 100.389247,170.458753 89.0519353,172.793497 C85.8273995,173.458624 77.2611547,175.224018 77.1364065,181.227898 C76.9998337,187.787529 87.2605266,190.542633 88.4299677,190.834697 C92.5040924,191.854559 96.4286374,192.357691 100.171677,192.357691 C109.275344,192.357099 117.285838,189.365506 123.688203,183.576831 C123.490734,206.962697 124.466254,230.006836 127.273977,237.028212 C129.573247,242.775501 135.191649,256.822984 152.93842,256.821801 C155.54158,256.821801 158.408425,256.519095 161.561423,255.843326 C180.082106,251.872074 188.124527,243.686577 191.236139,225.640055 C192.901025,215.995418 195.758411,192.963695 197.101672,180.610069 C199.937774,181.49454 203.589173,181.899529 207.536185,181.898938 C215.768388,181.898938 225.266993,180.150097 231.224166,177.384942 C237.91564,174.277469 249.991982,166.650679 247.802088,160.025423 L247.802088,160.025423 Z M203.696185,76.5445912 C203.634697,80.1918522 203.132748,83.5027067 202.600647,86.9590023 C202.028342,90.6760277 201.435935,94.5189838 201.286947,99.1843326 C201.139732,103.724342 201.706716,108.444674 202.255372,113.008924 C203.363326,122.228471 204.500249,131.720573 200.098587,141.086744 C199.41454,139.871778 198.754143,138.546254 198.14873,137.078245 C197.601848,135.752129 196.414079,133.621949 194.769885,130.673515 C188.370476,119.197857 173.385312,92.3243603 181.056443,81.3583372 C183.340933,78.0935982 189.139658,74.7384018 203.696185,76.5445912 L203.696185,76.5445912 Z M186.052286,14.7581339 C207.386014,15.2293395 224.261321,23.2102725 236.209958,38.4780416 C245.373931,50.1890069 235.282919,103.476028 206.069949,149.446651 C205.781432,149.080092 205.487594,148.709986 205.183704,148.33042 C205.062503,148.178476 204.938938,148.024166 204.814189,147.868083 C212.362938,135.400942 210.886651,123.066236 209.572952,112.129774 C209.033164,107.641792 208.523529,103.402716 208.653007,99.4214134 C208.787215,95.2000739 209.34533,91.5811917 209.884527,88.0811455 C210.548471,83.7675751 211.223058,79.3050162 211.036822,74.0437136 C211.17576,73.4921016 211.231926,72.8399815 211.159206,72.0660693 C210.683861,67.0205635 204.924157,51.9224758 193.18363,38.2551501 C186.762346,30.7808961 177.396767,22.4156674 164.609774,16.7736166 C170.109931,15.6337367 177.631483,14.5707159 186.052286,14.7581339 L186.052286,14.7581339 Z M66.6741062,175.777995 C60.7742818,182.871501 56.6995658,181.512277 55.3598522,181.065903 C46.6292471,178.153533 36.499806,159.702023 27.568776,130.441755 C19.8408868,105.123769 15.3245266,79.6650716 14.9674273,72.5260416 C13.8387806,49.9483788 19.3117413,34.2129515 31.2349561,25.7572656 C50.6389284,11.9965266 82.5413764,20.2328684 95.3602956,24.4104573 C95.1758337,24.591963 94.9842771,24.7622356 94.8015889,24.9466975 C73.7664296,46.1911501 74.2654226,82.4875751 74.3168591,84.7058476 C74.3150855,85.56194 74.3866236,86.7739492 74.485358,88.4412009 C74.8471871,94.5455889 75.5205912,105.907732 73.7214965,118.775132 C72.0489238,130.732046 75.7346143,142.435326 83.8320185,150.883917 C84.6703741,151.758337 85.5453857,152.579547 86.4493672,153.352277 C82.8446744,157.212379 75.0115473,165.74788 66.6741062,175.777995 L66.6741062,175.777995 Z M89.1530346,145.78461 C82.6265127,138.975483 79.6627067,129.503483 81.020157,119.795584 C82.920351,106.202753 82.2185681,94.3646744 81.8419584,88.0048776 C81.7893395,87.1150855 81.7426328,86.335261 81.7148453,85.7197968 C84.7880277,82.9954365 99.0288406,75.3645081 109.184296,77.6915658 C113.819492,78.7534042 116.642587,81.9087667 117.816758,87.3373857 C123.893358,115.440037 118.621413,127.153367 114.385293,136.565654 C113.512055,138.504868 112.687298,140.337663 111.982559,142.234309 L111.436859,143.699954 C110.054577,147.406337 108.768665,150.851991 107.971695,154.124416 C101.034273,154.103132 94.2848591,151.139917 89.1530346,145.78461 L89.1530346,145.78461 Z M90.2178291,183.685025 C88.1922956,183.178938 86.3701432,182.299788 85.3012102,181.570808 C86.1939584,181.150448 87.7831686,180.579326 90.5388637,180.011751 C103.876286,177.265515 105.93552,175.328074 110.433552,169.61685 C111.465238,168.30788 112.634088,166.823316 114.252859,165.015353 C114.25345,165.014171 114.254042,165.01358 114.254633,165.012988 C116.666236,162.31346 117.768868,162.771067 119.768979,163.600554 C121.390115,164.271594 122.968684,166.303039 123.608979,168.539048 C123.911686,169.594975 124.252231,171.599815 123.138956,173.158873 C113.742633,186.31479 100.051067,186.1457 90.2178291,183.685025 L90.2178291,183.685025 Z M160.016554,248.637487 C143.700545,252.133395 137.923695,243.80837 134.116804,234.291436 C131.659677,228.146845 130.452397,200.440314 131.309081,169.84388 C131.320314,169.436527 131.262374,169.043363 131.150042,168.673848 C131.05249,167.96024 130.902319,167.238356 130.694208,166.511741 C129.419529,162.059824 126.315012,158.335704 122.5903,156.792018 C121.110467,156.178919 118.393792,155.05382 115.129644,155.888628 C115.826106,153.0206 117.033386,149.782467 118.341764,146.275326 L118.891012,144.79963 C119.509432,143.136517 120.284527,141.413691 121.105145,139.590356 C125.538143,129.741746 131.609423,116.25297 125.020231,85.7795104 C122.551871,74.3659307 114.310208,68.7924619 101.815871,70.0866513 C94.3250624,70.861746 87.472776,73.8840831 84.0549099,75.6169607 C83.3200185,75.9894319 82.6477968,76.3488961 82.0199169,76.6994919 C82.9735612,65.1990023 86.578254,43.707418 100.060527,30.1098568 C108.54873,21.548933 119.854115,17.3210901 133.628453,17.5487113 C160.768591,17.9933118 178.172453,31.9213672 187.994457,43.5276859 C196.457829,53.5294226 201.040998,63.6038799 202.870245,69.0372286 C189.115418,67.6389838 179.76048,70.3544758 175.017681,77.1340416 C164.700822,91.8815335 180.662097,120.506236 188.333229,134.262836 C189.739751,136.784406 190.954125,138.963067 191.336055,139.888924 C193.833977,145.943058 197.067972,149.984665 199.429321,152.935464 C200.152979,153.839446 200.855353,154.716231 201.389229,155.481866 C197.223464,156.683233 189.740342,159.457848 190.422023,173.328554 C189.872185,180.289035 185.960647,212.874938 183.974134,224.387843 C181.351464,239.597672 175.754346,245.263372 160.016554,248.637487 L160.016554,248.637487 Z M228.120831,170.700564 C223.861062,172.678208 216.732083,174.161589 209.959612,174.479667 C202.479446,174.830263 198.671963,173.641903 197.776259,172.91115 C197.355307,164.267455 200.573339,163.364065 203.978199,162.408055 C204.513256,162.257293 205.035307,162.111261 205.53903,161.935076 C205.852379,162.189894 206.195289,162.442938 206.570716,162.690661 C212.582873,166.658956 223.306494,167.087002 238.444785,163.962383 C238.50036,163.950559 238.555935,163.939917 238.610919,163.928684 C236.569423,165.837746 233.075289,168.400111 228.120831,170.700564 L228.120831,170.700564 Z" fill="#FFFFFF"></path></g></svg></g></g><animate attributeName="opacity" from="0" to="1" begin="0s" dur="0.2s" fill="freeze" calcMode="spline" keyTimes="0;1" keySplines="0.42 0 0.58 1"></animate><animateMotion dur="15s" repeatCount="indefinite" begin="-12.5s" calcMode="linear" keyPoints="0.1;0.9" keyTimes="0;1"><mpath href="#path3"></mpath></animateMotion></g></g><defs><linearGradient id="paint0_linear" x1="933.455" y1="450.5" x2="-1.07436e-05" y2="444.318" gradientUnits="userSpaceOnUse"><stop stop-color="#5B58EB"></stop><stop offset="0.3333" stop-color="#FBF5FF"></stop><stop offset="0.6667" stop-color="#56E1E9"></stop><stop offset="1" stop-color="#1894FF"></stop></linearGradient><linearGradient id="paint1_linear" x1="850.729" y1="453.518" x2="83" y2="448.434" gradientUnits="userSpaceOnUse"><stop stop-color="#5B58EB"></stop><stop offset="0.3333" stop-color="#FBF5FF"></stop><stop offset="0.6667" stop-color="#56E1E9"></stop><stop offset="1" stop-color="#1894FF"></stop></linearGradient><linearGradient id="paint2_linear" x1="769" y1="456.5" x2="165" y2="452.5" gradientUnits="userSpaceOnUse"><stop stop-color="#5B58EB"></stop><stop offset="0.3333" stop-color="#FBF5FF"></stop><stop offset="0.6667" stop-color="#56E1E9"></stop><stop offset="1" stop-color="#1894FF"></stop></linearGradient></defs></svg>